<svg width="57" height="66" viewBox="0 0 57 66" fill="none" xmlns="http://www.w3.org/2000/svg">
<path fill-rule="evenodd" clip-rule="evenodd" d="M56.69 16.37V16.41V32.73V49.09V49.1L42.52 57.28L28.35 65.46V54.55V43.64L33.07 40.91L37.77 38.2H37.78L37.8 38.19V49.1L47.24 43.64V43.63V32.73V21.85V21.82L56.69 16.37Z" fill="#BE83CF"></path>
<path fill-rule="evenodd" clip-rule="evenodd" d="M28.35 0L28.41 0.04L42.52 8.18L56.69 16.36V16.37L47.24 21.82L37.8 16.37V27.28L37.77 27.26L37.76 27.25L37.71 27.23L37.68 27.21L28.35 32.73L19.01 27.21L18.98 27.23L18.93 27.25L18.92 27.26L18.9 27.28V16.37L9.48 21.8L9.45 21.82L0 16.37V16.36L0.03 16.35L14.17 8.18L28.35 0Z" fill="#694872"></path>
<path fill-rule="evenodd" clip-rule="evenodd" d="M18.9 49.1V38.19L18.91 38.2H18.93L23.62 40.91L28.35 43.64V54.55V65.46L14.17 57.28L0 49.1V32.73V16.37L9.45 21.82V32.73V43.64L9.46 43.65L18.9 49.1Z" fill="#D2A8DD"></path>
</svg>